<svg width="780.0" height="648.0" viewBox="0 0 780.0 648.0" xmlns="http://www.w3.org/2000/svg">
<style>/* font and background color specifications */
svg {
    font-family: Jost,SFMono-Regular,Consolas,Liberation Mono,Menlo,monospace;
    font-size: 12px;
    font-kerning: normal;
    text-rendering: optimizeLegibility;
    fill: #24292e;
}

/* default key styling */
rect {
    fill: #f6f8fa;
    stroke: #c9cccf;
    stroke-width: 0;
}

/* color accent for combo boxes */
rect.combo {
    fill: #cdf;
}

/* color accent for held keys */
rect.held, rect.combo.held {
    fill: #fdd;
}

/* color accent for ghost (optional) keys */
rect.ghost, rect.combo.ghost {
    fill: #ddd;
}

text {
    text-anchor: middle;
    dominant-baseline: middle;
}

/* styling for layer labels */
text.label {
    font-weight: bold;
    text-anchor: start;
    stroke: white;
    stroke-width: 2;
    paint-order: stroke;
}

/* styling for combo tap, and key hold/shifted label text */
text.combo, text.hold, text.shifted {
    font-size: 11px;
}

text.hold {
    text-anchor: middle;
    dominant-baseline: auto;
}

text.shifted {
    text-anchor: middle;
    dominant-baseline: hanging;
}

/* styling for hold/shifted label text in combo box */
text.combo.hold, text.combo.shifted {
    font-size: 8px;
}

/* styling for combo dendrons */
path {
    stroke-width: 2;
    stroke: gray;
    fill: none;
}
</style>
<g class="layer-BASE">
<text x="30.0" y="28.0" class="label">BASE:</text>
<rect rx="6.0" ry="6.0" x="92.0" y="58.0" width="56.0" height="56.0" class=""/>
<text x="120.0" y="86.0" class="tap">W</text>
<rect rx="6.0" ry="6.0" x="152.0" y="58.0" width="56.0" height="56.0" class=""/>
<text x="180.0" y="86.0" class="tap">F</text>
<rect rx="6.0" ry="6.0" x="212.0" y="58.0" width="56.0" height="56.0" class=""/>
<text x="240.0" y="86.0" class="tap">P</text>
<rect rx="6.0" ry="6.0" x="272.0" y="88.0" width="56.0" height="56.0" class=""/>
<text x="300.0" y="116.0" class="tap">B</text>
<rect rx="6.0" ry="6.0" x="452.0" y="88.0" width="56.0" height="56.0" class=""/>
<text x="480.0" y="116.0" class="tap">J</text>
<rect rx="6.0" ry="6.0" x="512.0" y="58.0" width="56.0" height="56.0" class=""/>
<text x="540.0" y="86.0" class="tap">L</text>
<rect rx="6.0" ry="6.0" x="572.0" y="58.0" width="56.0" height="56.0" class=""/>
<text x="600.0" y="86.0" class="tap">U</text>
<rect rx="6.0" ry="6.0" x="632.0" y="58.0" width="56.0" height="56.0" class=""/>
<text x="660.0" y="86.0" class="tap">Y</text>
<rect rx="6.0" ry="6.0" x="32.0" y="178.0" width="56.0" height="56.0" class=""/>
<text x="60.0" y="206.0" class="tap">R</text>
<rect rx="6.0" ry="6.0" x="92.0" y="118.0" width="56.0" height="56.0" class=""/>
<text x="120.0" y="146.0" class="tap">S</text>
<rect rx="6.0" ry="6.0" x="152.0" y="118.0" width="56.0" height="56.0" class=""/>
<text x="180.0" y="146.0" class="tap">T</text>
<rect rx="6.0" ry="6.0" x="212.0" y="118.0" width="56.0" height="56.0" class=""/>
<text x="240.0" y="146.0" class="tap">H</text>
<rect rx="6.0" ry="6.0" x="272.0" y="148.0" width="56.0" height="56.0" class=""/>
<text x="300.0" y="176.0" class="tap">K</text>
<rect rx="6.0" ry="6.0" x="452.0" y="148.0" width="56.0" height="56.0" class=""/>
<text x="480.0" y="176.0" class="tap">X</text>
<rect rx="6.0" ry="6.0" x="512.0" y="118.0" width="56.0" height="56.0" class=""/>
<text x="540.0" y="146.0" class="tap">N</text>
<rect rx="6.0" ry="6.0" x="572.0" y="118.0" width="56.0" height="56.0" class=""/>
<text x="600.0" y="146.0" class="tap">A</text>
<rect rx="6.0" ry="6.0" x="632.0" y="118.0" width="56.0" height="56.0" class=""/>
<text x="660.0" y="146.0" class="tap">I</text>
<rect rx="6.0" ry="6.0" x="692.0" y="178.0" width="56.0" height="56.0" class=""/>
<text x="720.0" y="206.0" class="tap">O</text>
<rect rx="6.0" ry="6.0" x="92.0" y="178.0" width="56.0" height="56.0" class=""/>
<text x="120.0" y="206.0" class="tap">C</text>
<rect rx="6.0" ry="6.0" x="152.0" y="178.0" width="56.0" height="56.0" class=""/>
<text x="180.0" y="206.0" class="tap">G</text>
<rect rx="6.0" ry="6.0" x="212.0" y="178.0" width="56.0" height="56.0" class=""/>
<text x="240.0" y="206.0" class="tap">D</text>
<rect rx="6.0" ry="6.0" x="512.0" y="178.0" width="56.0" height="56.0" class=""/>
<text x="540.0" y="206.0" class="tap">M</text>
<rect rx="6.0" ry="6.0" x="572.0" y="178.0" width="56.0" height="56.0" class=""/>
<text x="600.0" y="206.0" class="tap">,</text>
<rect rx="6.0" ry="6.0" x="632.0" y="178.0" width="56.0" height="56.0" class=""/>
<text x="660.0" y="206.0" class="tap">.</text>
<rect rx="6.0" ry="6.0" x="242.0" y="238.0" width="56.0" height="56.0" class=""/>
<text x="270.0" y="266.0" class="tap">ESC</text>
<text x="270.0" y="292.0" class="hold">SYM/NUM</text>
<rect rx="6.0" ry="6.0" x="302.0" y="238.0" width="56.0" height="56.0" class=""/>
<text x="330.0" y="266.0" class="tap">SPACE</text>
<rect rx="6.0" ry="6.0" x="422.0" y="238.0" width="56.0" height="56.0" class=""/>
<text x="450.0" y="266.0" class="tap">E</text>
<rect rx="6.0" ry="6.0" x="482.0" y="238.0" width="56.0" height="56.0" class=""/>
<text x="510.0" y="266.0" class="tap">ENTER</text>
</g>
<g class="layer-SYM/NUM">
<text x="30.0" y="324.0" class="label">SYM/NUM:</text>
<rect rx="6.0" ry="6.0" x="92.0" y="354.0" width="56.0" height="56.0" class=""/>
<text x="120.0" y="382.0" class="tap">!</text>
<rect rx="6.0" ry="6.0" x="152.0" y="354.0" width="56.0" height="56.0" class=""/>
<text x="180.0" y="382.0" class="tap">@</text>
<rect rx="6.0" ry="6.0" x="212.0" y="354.0" width="56.0" height="56.0" class=""/>
<text x="240.0" y="382.0" class="tap">#</text>
<rect rx="6.0" ry="6.0" x="272.0" y="384.0" width="56.0" height="56.0" class=""/>
<text x="300.0" y="412.0" class="tap">*</text>
<rect rx="6.0" ry="6.0" x="452.0" y="384.0" width="56.0" height="56.0" class=""/>
<text x="480.0" y="412.0" class="tap">+</text>
<rect rx="6.0" ry="6.0" x="512.0" y="354.0" width="56.0" height="56.0" class=""/>
<text x="540.0" y="382.0" class="tap">7</text>
<rect rx="6.0" ry="6.0" x="572.0" y="354.0" width="56.0" height="56.0" class=""/>
<text x="600.0" y="382.0" class="tap">8</text>
<rect rx="6.0" ry="6.0" x="632.0" y="354.0" width="56.0" height="56.0" class=""/>
<text x="660.0" y="382.0" class="tap">9</text>
<rect rx="6.0" ry="6.0" x="32.0" y="474.0" width="56.0" height="56.0" class=""/>
<text x="60.0" y="502.0" class="tap">,</text>
<rect rx="6.0" ry="6.0" x="92.0" y="414.0" width="56.0" height="56.0" class=""/>
<text x="120.0" y="442.0" class="tap">$</text>
<rect rx="6.0" ry="6.0" x="152.0" y="414.0" width="56.0" height="56.0" class=""/>
<text x="180.0" y="442.0" class="tap">%</text>
<rect rx="6.0" ry="6.0" x="212.0" y="414.0" width="56.0" height="56.0" class=""/>
<text x="240.0" y="442.0" class="tap">^</text>
<rect rx="6.0" ry="6.0" x="272.0" y="444.0" width="56.0" height="56.0" class=""/>
<text x="300.0" y="472.0" class="tap">/</text>
<rect rx="6.0" ry="6.0" x="452.0" y="444.0" width="56.0" height="56.0" class=""/>
<text x="480.0" y="472.0" class="tap">-</text>
<rect rx="6.0" ry="6.0" x="512.0" y="414.0" width="56.0" height="56.0" class=""/>
<text x="540.0" y="442.0" class="tap">4</text>
<rect rx="6.0" ry="6.0" x="572.0" y="414.0" width="56.0" height="56.0" class=""/>
<text x="600.0" y="442.0" class="tap">5</text>
<rect rx="6.0" ry="6.0" x="632.0" y="414.0" width="56.0" height="56.0" class=""/>
<text x="660.0" y="442.0" class="tap">6</text>
<rect rx="6.0" ry="6.0" x="692.0" y="474.0" width="56.0" height="56.0" class=""/>
<text x="720.0" y="502.0" class="tap">.</text>
<rect rx="6.0" ry="6.0" x="92.0" y="474.0" width="56.0" height="56.0" class=""/>
<text x="120.0" y="502.0" class="tap">&amp;</text>
<rect rx="6.0" ry="6.0" x="152.0" y="474.0" width="56.0" height="56.0" class=""/>
<text x="180.0" y="502.0" class="tap">(</text>
<rect rx="6.0" ry="6.0" x="212.0" y="474.0" width="56.0" height="56.0" class=""/>
<text x="240.0" y="502.0" class="tap">)</text>
<rect rx="6.0" ry="6.0" x="512.0" y="474.0" width="56.0" height="56.0" class=""/>
<text x="540.0" y="502.0" class="tap">1</text>
<rect rx="6.0" ry="6.0" x="572.0" y="474.0" width="56.0" height="56.0" class=""/>
<text x="600.0" y="502.0" class="tap">2</text>
<rect rx="6.0" ry="6.0" x="632.0" y="474.0" width="56.0" height="56.0" class=""/>
<text x="660.0" y="502.0" class="tap">3</text>
<rect rx="6.0" ry="6.0" x="242.0" y="534.0" width="56.0" height="56.0" class="held"/>
<rect rx="6.0" ry="6.0" x="302.0" y="534.0" width="56.0" height="56.0" class=""/>
<rect rx="6.0" ry="6.0" x="422.0" y="534.0" width="56.0" height="56.0" class=""/>
<text x="450.0" y="562.0" class="tap">E</text>
<rect rx="6.0" ry="6.0" x="482.0" y="534.0" width="56.0" height="56.0" class=""/>
<text x="510.0" y="562.0" class="tap">0</text>
</g>
</svg>
