<?xml version="1.0" encoding="UTF-8" standalone="no"?>
<!-- Generator: Adobe Illustrator 26.2.1, SVG Export Plug-In . SVG Version: 6.00 Build 0)  -->

<svg
   version="1.1"
   id="svg"
   inkscape:export-filename="C:\Users\jakob\Desktop\_KeebSupply\stigger.png"
   x="0px"
   y="0px"
   width="525.66418"
   height="485.81812"
   viewBox="0 0 525.6642 485.81811"
   xml:space="preserve"
   sodipodi:docname="stiggerpath.svg"
   inkscape:version="1.1.2 (b8e25be833, 2022-02-05)"
   xmlns:inkscape="http://www.inkscape.org/namespaces/inkscape"
   xmlns:sodipodi="http://sodipodi.sourceforge.net/DTD/sodipodi-0.dtd"
   xmlns="http://www.w3.org/2000/svg"
   xmlns:svg="http://www.w3.org/2000/svg">
<style
   type="text/css"
   id="style1204">
	.st0{fill-rule:evenodd;clip-rule:evenodd;stroke:#FFFFFF;stroke-width:10;stroke-linejoin:round;}
	.st1{fill:#2C2D2C;stroke:#000000;}
	.st2{fill:#1F1F1F;stroke:#000000;}
	.st3{fill:#131313;stroke:#000000;}
	.st4{fill:#515151;stroke:#000000;}
	.st5{fill:#CB6395;stroke:#000000;}
	.st6{fill:#D33582;stroke:#000000;}
	.st7{fill:#00556A;stroke:#000000;}
	.st8{fill:#04536B;stroke:#000000;}
	.st9{fill:#002A35;}
	.st10{fill-rule:evenodd;clip-rule:evenodd;}
	.st11{fill-rule:evenodd;clip-rule:evenodd;fill:#002A35;stroke:#000000;stroke-width:2.8346;stroke-miterlimit:10;}
</style>
<defs
   id="defs1207">
	
		<inkscape:path-effect
   deform_type="perspective"
   down_left_point="162.70416,295.90197"
   down_right_point="251.19788,293.02471"
   effect="perspective-envelope"
   horizontal_mirror="true"
   id="path-effect3504"
   is_visible="true"
   lpeversion="1"
   overflow_perspective="false"
   up_left_point="162.70416,225.26123"
   up_right_point="251.19788,228.13849"
   vertical_mirror="false">
		</inkscape:path-effect>
</defs>
<sodipodi:namedview
   bordercolor="#666666"
   borderopacity="1.0"
   id="namedview5"
   inkscape:current-layer="svg"
   inkscape:cx="184.75"
   inkscape:cy="238"
   inkscape:pagecheckerboard="true"
   inkscape:pageopacity="0.0"
   inkscape:pageshadow="2"
   inkscape:snap-nodes="false"
   inkscape:window-height="1369"
   inkscape:window-maximized="1"
   inkscape:window-width="2560"
   inkscape:window-x="-8"
   inkscape:window-y="-8"
   inkscape:zoom="2"
   pagecolor="#ffffff"
   showgrid="false"
   showguides="false">
	</sodipodi:namedview>

<path
   id="path5276"
   class="st1"
   d="m 474.87459,278.49106 -0.66176,14.29389 17.86736,4.36757 1.19116,-14.16153 z"
   style="stroke-width:1.32351" />
<path
   id="path4882"
   class="st1"
   d="m 492.21254,282.32924 1.19116,16.67619 29.11717,-5.95578 0.39705,-17.735 z"
   style="stroke-width:1.32351" />
<path
   id="path4475"
   class="st2"
   d="m 419.94902,387.15105 -2.51467,18.13206 44.86691,-13.63213 8.20575,2.64701 9.26456,-5.42638 12.17627,-62.46956 0.39705,-28.72012 -17.4703,-4.23523 -1.98526,50.2933 -11.77922,32.95534 z"
   style="stroke-width:1.32351" />
<path
   id="path3863"
   class="st2"
   d="m 500.94769,257.44729 -6.74989,11.38217 -17.2056,5.69108 16.6762,8.6028 28.32307,-8.20575 -3.30877,-10.58806 z"
   style="stroke-width:1.32351" />
<path
   id="path3682"
   class="st2"
   d="m 313.53899,329.04906 2.11761,75.04289 51.48446,-16.01444 -0.2647,-77.68991 z"
   style="stroke-width:1.32351" />
<path
   id="path3534"
   class="st2"
   d="m 229.76095,450.94413 -2.77937,13.10272 13.76449,-3.97052 19.45556,3.97052 47.24923,-12.70567 22.23493,-9.26456 21.04377,-1.85291 15.74974,-11.64687 45.66102,-15.08798 5.42638,-8.47045 8.0734,-46.05807 47.77863,-12.30863 2.51466,-72.52822 -50.55799,16.9409 -0.39705,64.05777 -25.279,7.41165 -9.66161,41.82284 -76.3664,23.95549 1.45586,-36.92586 -26.20545,6.74989 -1.58821,-11.24982 -3.57347,4.49993 -8.99986,46.98452 z"
   style="stroke-width:1.32351" />
<path
   id="path3320"
   class="st2"
   d="m 131.82138,326.00499 10.98511,-6.74989 56.24908,37.98468 27.66131,1.19115 59.9549,-19.72026 1.05881,30.17597 -8.0734,42.74931 -45.39631,11.77921 -11.38217,54.92558 -16.6762,2.51466 9.92631,-28.58777 2.91172,-58.23434 26.47015,-12.04392 -0.39705,-18.26441 -34.1465,11.38217 -20.11732,-5.42638 z"
   style="stroke-width:1.32351" />
<path
   id="path3139"
   class="st3"
   d="m 366.2146,309.99055 0.5294,78.08696 23.69079,15.48504 9.66161,-40.89639 25.279,-8.0734 0.7941,-65.24893 z"
   style="stroke-width:1.32351" />
<path
   id="path2958"
   class="st3"
   d="m 286.14238,338.84302 2.64702,60.08725 27.39661,-8.99985 -2.64702,-60.61666 z"
   style="stroke-width:1.32351" />
<path
   id="path2744"
   class="st1"
   d="m 18.926162,228.59482 -12.573325,2.24996 -4.2352246,11.38217 1.7205601,7.41165 33.8817995,25.94075 10.323361,86.028 145.188807,108.92469 3.17642,-78.08696 10.58806,2.38232 13.49978,-1.85291 25.41135,-10.45572 -0.92646,-18.2644 -34.27885,9.79395 -16.01445,-2.91171 -61.67546,-43.94046 8.0734,-9.39691 -52.146208,-35.99941 -20.117318,9.13221 -7.014592,-0.2647 -0.529403,-30.04363 z"
   style="stroke-width:1.32351" />
<path
   id="path2483"
   class="st4"
   d="M 61.410761,262.21192 61.27841,291.72614 88.675021,281.13808 Z"
   style="stroke-width:1.32351" />
<path
   id="path2160"
   sodipodi:nodetypes="ccccccc"
   class="st4"
   d="m 191.24687,470.13499 15.6174,10.19101 8.6028,-25.0143 3.30877,-61.67546 -13.49978,0.92646 -9.13221,-2.38232 z"
   style="stroke-width:1.32351" />
<path
   id="path1909"
   class="st4"
   d="m 233.20207,423.01811 -3.70582,27.79367 45.66102,-12.70568 4.76462,-28.05836 z"
   style="stroke-width:1.32351" />
<path
   id="path1977"
   class="st4"
   d="m 314.8625,404.489 -2.64702,23.95549 76.49875,-24.48489 -23.02903,-16.01444 z"
   style="stroke-width:1.32351" />
<path
   id="path2012"
   class="st4"
   d="m 424.58129,358.82799 -4.23522,28.58776 40.10228,-10.58806 10.19101,-29.24952 z"
   style="stroke-width:1.32351" />
<path
   id="path1728"
   class="st5"
   d="m 300.83332,17.230634 -19.32322,6.485188 9.92631,12.705674 c 0,0 -21.70552,4.367576 -21.70552,5.02933 0,0.529403 0.5294,83.910394 0.5294,83.910394 l 24.88194,-5.02933 -1.3235,-14.69094 8.6028,-4.36758 z"
   style="stroke-width:1.32351" />
<path
   id="path1220"
   class="st5"
   d="m 223.80517,36.818549 1.0588,82.454531 23.29374,-5.55873 0.39705,-82.851586 z"
   style="stroke-width:1.32351" />
<path
   id="path1039"
   class="st6"
   d="m 249.48122,32.583324 -0.39706,82.851586 18.39676,7.01459 1.85291,-82.586884 z"
   style="stroke-width:1.32351" />
<path
   id="path858"
   class="st5"
   d="M 218.64349,9.9513405 219.04054,23.318769 230.158,16.833581 Z"
   style="stroke-width:1.32351" />
<path
   id="path3319"
   class="st6"
   d="m 288.5247,6.7749215 -25.279,6.2204875 -17.86736,-9.9263087 -21.70553,5.2940312 10.72042,11.5145175 -25.279,7.411644 -1.19116,61.675462 -37.05821,10.588055 77.55755,52.67561 102.4395,-26.99955 -3.17642,-5.82344 -44.20516,-25.940749 v 10.323359 l -9.1322,3.57347 1.45586,14.82329 -27.13191,2.77936 -20.91142,-10.58806 -23.69079,5.82344 0.13235,-84.439798 23.69079,-4.102874 23.16138,9.529256 18.39676,-5.558732 -7.67634,-12.970376 17.33795,-6.220487 z"
   style="stroke-width:1.32351" />
<path
   id="path3081"
   class="st7"
   d="m 194.82035,354.06336 11.11746,-71.20472 19.19086,-11.24982 7.544,-22.49963 4.36757,-55.05792 -131.55667,-82.71924 8.6028,-11.38216 94.76316,-26.867209 -0.13235,15.087989 -39.30818,9.92631 78.48401,52.4109 104.95416,-28.19071 -49.76389,-30.440678 -0.66175,-32.955344 133.01253,70.145912 12.30862,12.30862 20.91142,68.69005 19.19086,13.76448 12.04393,32.02889 -3.30877,10.85277 -266.95152,89.07207 z"
   style="stroke-width:1.32351" />
<path
   id="path2199"
   class="st8"
   d="m 53.205013,189.55134 2.249963,9.66161 9.661607,-11.51452 z"
   style="stroke-width:1.32351" />
<path
   id="path385"
   class="st9"
   d="m 103.36596,111.19968 133.27723,83.11629 -7.27929,68.42535 -9.13221,11.24982 -14.95563,9.3969 -12.17627,70.27827 L 14.955639,225.55075 46.322773,190.7425 57.83729,200.53646 Z"
   style="stroke-width:1.32351" />
<path
   id="path2301"
   sodipodi:nodetypes="ccccccccccccccccccccccccccccccccccccccccccccccccccccccccccccccscccccccsccccccccccccccccccccccccccccccccccsscccccccccccccccscccccccsccccccccccccccccccccccccccccccccccscccccccccccccccccsccsccccccccccccccccccccccccccccccccsccccccccccccccccccccccccccccccccccccscccccccccccccccscccccccccccccccccccccccccccccccssccccccccccccccccccccccccccccsccccccccccccccccccccccccscsccccccccccccccccccccscscccccccccccsscccccscccccscccccccccscccccccccccccccccccccccsccssscccsscccscccccccccsccccccccscccccccccscssscccccccccccccccccccsccccccccccccccccsccccccccccccsccccccccccsccccccscccccsccccccccccccsccccccccccccccsccccccsccccccccccccscccccscccccccsccccccccccccccccsccscsccccccccscccccccccsccccccccccscccsccccccccscscccccccccccccccccscccsccscccccccc"
   class="st10"
   d="m 244.31954,0.02503243 c -0.52941,0.1323508 -6.08814,0.9264555 -12.57333,1.85291087 -17.07325,2.5146648 -15.88209,1.5882093 -15.74974,12.3086227 l 0.13235,6.352837 -0.5294,0.132351 c -0.2647,0.132351 -2.64702,0.794105 -5.16168,1.455858 -5.69109,1.455859 -5.55874,1.455859 -5.69109,2.117613 -0.13235,0.264701 -0.13235,10.852763 -0.13235,23.426087 0,22.10258 0,23.029035 -0.2647,23.029035 -0.13235,0 -18.52911,5.02933 -40.76404,11.117466 -46.85217,12.705679 -46.45512,12.705679 -49.76389,15.087987 -3.17642,2.38231 -4.89698,3.83817 -7.01459,6.35284 -3.57347,4.10287 -3.70582,4.36757 -6.08814,9.1322 -1.19115,2.38231 -7.279291,14.02918 -13.499779,25.8084 -11.514517,21.70553 -14.955636,28.19072 -19.587914,37.19057 -3.044067,5.82343 -2.647015,5.42638 -4.632278,5.95578 -0.926455,0.26471 -5.294031,1.85292 -9.793956,3.44112 l -6.882241,2.77937 c -5.02933,1.45586 -23.82314,26.60251 -34.01415,37.98467 -0.132351,0 -1.058806,0.13235 -2.117612,0.26471 -4.102875,0.5294 -5.02933,1.3235 -8.3380991,7.41164 C 0.2647015,236.00647 0,238.12408 0,242.0946 c 0.1323508,5.69108 0.9264554,7.8087 2.1176124,9.52926 5.8234336,5.95578 11.6468686,10.05866 16.8085486,14.29388 8.999853,7.27929 16.411496,13.23508 16.411496,13.36743 0.132351,0.13235 0.661754,5.82343 1.191157,12.70567 0.794105,8.86751 1.323508,14.29389 1.852911,18.26441 1.058806,9.92631 2.779366,20.51437 3.970523,29.24952 3.30877,23.82314 2.911717,21.83788 3.970524,23.29374 1.058806,1.32351 -7.279293,-5.02933 81.131028,63.13132 37.19057,28.72012 68.16065,52.67561 68.95476,53.46971 2.38231,2.38232 7.94104,5.16168 12.17627,6.08814 3.57347,0.7941 9.1322,0.13235 12.44097,-1.72056 1.98526,-1.05881 1.98526,-1.05881 4.36758,-4.36758 0.2647,-0.39705 0.5294,-1.45586 1.0588,-4.63227 0.66176,-4.10288 1.32351,-6.88224 1.45586,-7.0146 4.63228,-1.3235 9.26455,-2.77936 14.16153,-3.44112 l 5.55874,1.32351 c 7.41164,1.85291 15.22033,2.24997 22.49963,1.19116 24.74959,-6.48519 37.05821,-11.77922 59.82255,-20.64672 l 3.04407,-0.13235 c 13.23507,-0.79411 22.23493,-3.30877 28.98482,-8.0734 6.22048,-4.49993 7.01459,-4.89698 10.98511,-6.61754 8.0734,-3.30877 18.13206,-7.01459 26.20545,-9.79396 11.51452,-3.83817 14.02919,-5.02933 16.1468,-7.67634 0.5294,-0.5294 0.92645,-1.05881 1.05881,-1.05881 0,0 0.39705,-0.5294 0.7941,-1.19115 0.5294,-0.92646 0.92646,-1.32351 2.51466,-2.51467 l 1.85292,-1.32351 7.14694,-2.38231 c 15.74974,-5.29403 30.97008,-10.05866 32.82299,-10.19101 1.19116,-0.13235 2.91172,0.5294 4.10287,1.45586 1.98527,1.45586 4.49993,1.19115 9.26456,-1.19116 4.36757,-2.11761 4.76463,-2.51466 5.02933,-3.04407 0.13235,-0.2647 0.13235,-0.5294 0.2647,-0.5294 0.13235,-0.13235 0.7941,-2.38231 0.92646,-3.57347 0.13235,-0.5294 2.91171,-14.16153 6.22048,-30.17598 l 6.08814,-29.11717 0.2647,-12.04392 c 0.13235,-6.61754 0.2647,-12.44097 0.39705,-12.97038 v -0.92645 l 11.64687,-2.64702 c 6.35284,-1.45586 12.83802,-2.91171 14.29388,-3.17642 4.63228,-0.7941 5.02933,-1.19115 5.02933,-6.08813 0,-1.32351 0.13235,-4.76463 0.39706,-7.8087 0.2647,-3.44112 0.39705,-5.82343 -0.13236,-8.8675 -0.39705,-3.70582 -0.39705,-5.55873 -2.11761,-8.20575 -3.30877,-5.02933 -7.41164,-5.69108 -11.91157,-7.94104 -7.14694,-3.17642 -8.20575,-3.57347 -8.20575,-3.97053 0,-0.2647 -2.51466,-6.88224 -5.69108,-14.95563 -6.08814,-15.8821 -5.82343,-15.22034 -8.3381,-17.86736 -1.19116,-1.19116 -11.91157,-9.3969 -14.82329,-11.11746 -3.04406,-1.98527 -2.24996,0.2647 -11.77921,-28.19072 -6.88224,-20.64672 -8.3381,-25.14665 -9.39691,-29.38187 -3.04407,-11.77922 -4.10287,-14.02918 -8.99985,-19.45557 -6.48519,-7.14694 -5.16168,-6.35283 -39.04348,-23.95549 -35.60236,-18.264402 -68.293,-36.131757 -99.66014,-52.146201 -0.2647,-12.970376 0.26471,-25.940752 -0.13235,-38.911128 v -1.72056 l -1.3235,-1.058807 c -0.79411,-0.529403 -4.49993,-3.44112 -8.47045,-6.3528375 l -7.0146,-5.2940308 c -8.33809,1.7205598 -16.67619,3.7058218 -25.14664,5.2940308 -6.48519,-3.044068 -11.24982,-5.9557847 -18.13206,-8.99985247 -0.27707,-0.2379038 -0.56784,-0.3286447 -0.73191,-0.2746359 m 7.2171,11.12739987 c 3.44112,1.852911 6.74989,3.838172 7.27929,4.235225 2.38232,1.72056 1.98526,1.588209 6.48519,0.926455 7.8087,-1.588209 13.76448,-3.176418 21.83788,-4.896978 5.02933,3.308769 3.70582,2.911717 5.69108,4.499926 -5.29403,1.323508 -10.72041,2.382314 -16.01444,3.838172 -3.04407,1.058807 -3.30877,5.02933 -0.39706,7.279293 3.04407,2.514665 6.35284,4.896979 8.73516,7.014591 -5.02933,1.191157 -8.86751,1.985262 -14.29389,3.176419 -3.83817,-1.985262 -7.94104,-4.102874 -11.24981,-5.955785 -16.6762,-6.485188 -17.60266,-2.249963 -34.1465,1.455859 -2.64702,-1.455859 -4.63228,-2.911718 -7.2793,-4.632278 5.16168,-2.249963 18.52911,-2.117612 20.64672,-6.617538 0.39706,-0.926456 0.52941,-2.647016 0.13236,-3.705822 -0.39706,-0.794105 -1.19116,-1.58821 -5.55874,-4.764628 -5.02933,-3.5734715 -5.16168,-3.3087705 1.05881,-3.9705235 3.44112,-0.397053 7.01459,-0.926456 10.45571,-1.191157 0.2647,-0.132351 1.72056,0.529403 6.61754,3.3087695 m -27.79366,3.970523 c 3.44112,2.514665 3.44112,2.647016 -0.66176,3.573471 -1.32351,0.264702 -2.38231,0.529403 -2.38231,0.529403 0,0 -0.13235,-1.455858 -0.13235,-3.176418 v -3.176419 l 0.5294,0.397052 c 0.2647,0.132351 1.45586,0.926456 2.64702,1.852911 m 75.17524,45.396317 c 0,21.308475 0,38.911122 0.13235,39.175832 0.13235,0.2647 -1.19116,1.3235 -1.45586,1.0588 0,0 -0.13235,-11.382163 -0.39705,-25.278995 -0.2647,-25.940752 -0.66176,-40.102285 -0.92646,-41.161091 -0.39705,-1.323508 -1.32351,-2.249963 -6.22049,-6.220487 -3.30876,-2.779366 -3.44112,-2.911717 -2.91171,-3.044068 3.97052,-1.191157 7.14694,-2.117612 11.38216,-3.308769 0.39706,0 0.39706,1.985262 0.39706,38.778778 m -81.66043,-24.749596 3.57347,2.117613 -0.13235,4.235225 c 0,2.382314 -0.13235,19.720265 -0.2647,38.646426 -0.13235,18.926164 -0.26471,34.278854 -0.26471,34.411204 -2.91171,-1.72056 -5.16168,-3.04407 -8.33809,-4.89698 V 84.597179 c -0.13235,-19.720266 0,-25.5437 0.13235,-25.411349 3.70582,1.455858 5.02933,1.455858 6.22048,0.132351 1.58821,-1.58821 0.79411,-4.367576 -1.19115,-5.02933 -0.79411,-0.264701 -2.91172,-1.323508 -4.10288,-1.985262 -0.66175,-0.397052 -0.7941,-0.529403 -0.7941,-1.058806 0,-0.264701 0,-1.455858 -0.13235,-2.514665 l -0.13235,-1.85291 1.45585,0.926455 c 3.57348,2.249963 6.35284,1.455859 6.35284,-1.852911 -1.85291,-3.970523 -3.57347,-4.102874 -7.54399,-6.485188 l -0.13235,-6.88224 0.7941,0.529403 c 0.5294,0.264701 2.51467,1.455858 4.49993,2.647015 m 28.05836,27.793663 c -0.13235,15.749743 -0.13235,32.955345 -0.13235,38.249375 0,10.32336 -0.2647,9.6616 -0.7941,9.92631 -5.69109,1.72056 -12.17627,3.17641 -16.9409,4.36757 v -1.58821 -1.58821 l 4.63227,-1.0588 c 5.82344,-1.32351 7.0146,-1.72056 7.67635,-2.24997 1.72056,-1.45585 1.19116,-4.36757 -0.7941,-5.29403 -0.66176,-0.2647 -1.98527,-0.2647 -2.51467,-0.13235 -2.77937,0.66176 -5.29403,1.45586 -8.0734,1.98526 l -0.7941,0.13235 -0.13235,-0.92645 c 0,-0.5294 -0.13235,-1.19116 0,-1.45586 v -0.5294 l 3.04407,-0.66176 c 5.55873,-1.19115 6.08813,-1.45586 6.35283,-3.97052 0.13235,-0.92646 -0.2647,-1.45586 -0.66175,-1.85291 -1.45586,-1.58821 -2.51467,-1.72056 -6.74989,-0.5294 -0.5294,0.13235 -1.19116,0.2647 -1.45586,0.2647 h -0.5294 c 0.13235,-19.587915 0.39705,-40.366987 0.5294,-57.307887 5.82343,-1.455858 11.51452,-3.044068 17.33795,-4.367575 0.13235,0 0.13235,11.779219 0,28.587767 m 10.98512,-25.808401 c 3.44112,1.72056 6.48518,3.308769 9.9263,5.02933 v 38.249374 c 0,21.043772 0,38.249372 -0.13235,38.249372 -4.89697,-2.38231 -8.47045,-4.23522 -13.76448,-6.74989 l 0.13235,-7.01459 c 0.39706,-24.749594 -0.39705,-44.337509 0.26471,-69.748858 0,0.132351 1.72056,0.926456 3.57347,1.985262 m 33.74944,4.764628 c 0.13236,25.676051 0.39706,46.05807 0.52941,73.189978 v 2.11761 c -5.69109,1.05881 -11.51452,2.38232 -17.2056,3.44112 -0.39706,-27.661308 -0.13235,-44.205155 -0.13235,-77.160499 5.29403,-1.058806 10.58806,-2.117612 15.74974,-3.308769 1.0588,-0.264702 1.0588,-0.264702 1.0588,1.72056 m 28.72012,29.911275 c 33.8818,18.264408 87.61622,46.455123 99.13073,51.749153 6.48519,3.04407 10.32337,5.16168 14.16154,7.94105 2.91171,2.11761 5.55873,4.10287 5.55873,4.49992 -67.63125,19.05851 -123.21857,32.29359 -189.39396,51.48445 -5.55873,1.58821 -10.05866,2.91172 -10.19101,2.91172 -0.13235,0 -4.63228,-2.77937 -10.05866,-6.35284 -43.67576,-27.39661 -68.95475,-42.7493 -108.92469,-67.49889 -5.16168,-3.17642 -9.3969,-5.82344 -9.3969,-5.95579 0,-0.13235 0.66175,-1.19115 1.58821,-2.51466 2.64701,-3.57347 5.42638,-6.08814 8.8675,-7.41165 1.32351,-0.5294 75.17524,-20.249662 83.91039,-22.367275 l 0.5294,-0.13235 v 3.573471 3.573471 h -0.39705 c -10.72041,2.779366 -22.76433,6.485188 -33.08769,9.132203 -1.85291,0.2647 -5.82344,1.72056 -6.35284,2.11761 -1.85291,1.72056 -1.05881,4.36758 1.72056,5.69108 27.26426,17.33796 53.33736,34.54356 78.08696,50.2933 0.2647,0.13235 0.92645,0.5294 1.45586,0.92645 1.3235,0.79411 2.24996,0.92646 4.10287,0.26471 37.85232,-9.13221 65.38128,-18.13206 99.66013,-26.47016 5.16169,-0.92645 7.2793,-2.64701 6.35284,-5.16168 -0.2647,-0.7941 -2.64701,-2.64702 -3.97052,-3.17642 -0.2647,-0.13235 -0.79411,-0.5294 -1.32351,-0.92645 -0.5294,-0.39706 -1.05881,-0.66176 -1.05881,-0.66176 -14.55858,-9.6616 -31.36713,-19.58791 -43.67575,-27.528957 V 65.538667 l 0.5294,0.264702 c 0.2647,0.13235 5.82344,3.176418 12.17627,6.617538 M 204.6143,92.538225 c 0,0.264702 0.13235,4.499925 0.13235,9.661605 0,5.02933 0.13235,9.66161 0.13235,10.05866 l 0.13236,0.7941 8.07339,5.29403 c 4.49993,2.91172 8.3381,5.42639 8.73515,5.42639 1.05881,0.2647 3.04407,0.13235 4.36758,-0.2647 2.24996,-0.66176 21.04377,-4.76463 21.83788,-4.76463 5.95578,2.51466 10.05866,5.16168 17.07325,8.8675 l 3.17642,1.58821 h 1.85291 c 1.0588,0 2.11761,-0.13235 2.38231,-0.13235 0.39705,-0.13235 4.89698,-1.05881 10.05866,-1.98526 14.02918,-2.77937 12.83803,-2.51467 14.02918,-3.30877 0.66176,-0.52941 1.05881,-0.92646 1.05881,-1.32351 0.39705,-2.24996 0.13235,-5.95579 0.13235,-10.19101 v -3.04407 c 2.77937,-1.72056 5.55873,-3.44112 8.3381,-5.02933 v -3.17642 -3.17642 l 0.7941,0.52941 c 12.17627,8.20575 24.35255,14.69093 35.33766,22.23493 0.5294,0.39705 1.32351,0.92645 1.72056,1.0588 0.39705,0.13236 0.92646,0.52941 1.19116,0.66176 l 0.39705,0.39705 -0.5294,0.13235 c -0.2647,0.13235 -0.66176,0.13235 -0.79411,0.13235 -30.70538,7.94105 -64.05777,17.2056 -92.64554,24.61725 -0.2647,0 -1.05881,0.2647 -1.72056,0.39705 l -1.19116,0.2647 -2.11761,-1.32351 c -24.35254,-16.54384 -47.77863,-29.64657 -71.86647,-46.45512 0.2647,-0.13235 29.51422,-8.205746 29.64657,-8.338097 0,0 0.13235,0.264702 0.2647,0.397052 m -96.61606,26.337805 c 0.66175,0.39705 82.85158,51.3521 102.83655,63.92542 7.27929,4.49993 15.22034,9.39691 17.4703,10.85277 l 4.89698,3.44112 c -5.02933,47.64628 -1.85291,49.89624 -10.19101,70.14591 -1.45586,2.24996 -2.51466,3.17642 -8.20575,6.61754 -1.85291,1.19115 -6.61754,3.44112 -7.41164,3.97052 -3.17642,1.72056 -4.23523,1.72056 -5.16168,4.89698 l -1.05881,4.89698 c -2.91171,15.88209 -5.42638,31.49948 -7.27929,45.92572 -0.5294,3.70582 -1.19116,8.6028 -1.58821,10.85276 -0.2647,2.24996 -0.66175,4.10288 -0.66175,4.23523 -0.13235,0.13235 -9.79396,-6.74989 -28.72012,-20.24967 -41.6905,-29.91128 -73.587036,-52.80796 -77.292858,-55.32263 -1.72056,-1.19115 -5.426382,-3.97052 -8.338099,-5.95578 -2.779366,-1.98526 -5.955785,-4.23523 -7.014591,-5.02933 -1.058806,-0.79411 -2.911717,-2.11761 -3.970523,-2.91172 -2.249963,-1.58821 -26.867208,-19.19086 -29.514223,-21.17612 -0.926456,-0.66176 -4.896979,-3.57347 -8.867502,-6.35284 -3.970524,-2.77937 -7.146942,-5.16168 -7.146942,-5.16168 0,-0.13235 10.32336,-11.77922 11.117465,-12.44097 0.529403,-0.39706 7.411643,-8.20575 7.676345,-8.6028 0,0 1.72056,1.85291 3.838172,4.10287 2.382314,2.51466 4.102875,4.23522 4.499927,4.36758 2.514665,1.0588 5.16168,-1.58821 4.102874,-4.10288 -0.132351,-0.2647 -1.588209,-1.98526 -3.176419,-3.70582 -1.588209,-1.72056 -3.44112,-3.57347 -3.970523,-4.23523 l -1.058806,-1.19115 1.852911,-2.11761 c 1.058806,-1.19116 1.985261,-2.11762 2.117612,-2.11762 0.132351,0 1.191157,1.19116 2.382314,2.64702 3.176419,3.83817 4.632277,5.29403 6.220487,5.82343 1.985261,0.66176 3.573471,0.2647 4.499926,-1.32351 0.529403,-0.92645 2.117612,-3.70582 2.514665,-4.49992 0.13235,-0.39705 2.514664,-5.02933 5.294031,-10.32336 l 4.896978,-9.52926 c 8.338099,4.76463 17.205601,9.66161 24.484899,13.76448 2.64701,1.45586 3.97052,1.58821 5.29403,0.52941 1.72056,-1.58821 1.32351,-4.10288 -0.79411,-5.29404 -8.602799,-4.89697 -17.867353,-9.79395 -25.8084,-14.42623 l 1.455859,-2.77937 c 0.794104,-1.45585 1.588209,-2.77936 1.588209,-2.77936 3.308769,1.98526 6.088136,3.83817 9.132204,5.55873 1.191157,0.66175 2.117612,1.19116 3.044067,1.72056 2.779368,1.98526 5.955791,0.92646 5.955791,-1.98526 -0.52941,-2.51467 -2.38232,-3.04407 -4.10288,-4.10288 -3.308769,-1.98526 -6.88224,-3.97052 -9.926308,-5.95578 0.794105,-1.98526 1.588209,-3.57347 2.647016,-5.16168 0.794104,-1.98526 22.499632,11.77922 31.499492,17.2056 2.77936,1.98526 5.95578,0.92646 5.95578,-1.98526 -0.66175,-2.51467 -2.11761,-3.04407 -4.10287,-4.10288 -8.3381,-5.02932 -15.8821,-9.3969 -24.4849,-14.29388 -3.176419,-1.85291 -5.955785,-3.44112 -6.352838,-3.57347 l -0.529403,-0.2647 8.602801,-16.4115 c 4.76463,-8.99985 8.73515,-16.54385 8.8675,-16.9409 l 0.26471,-0.5294 m 342.52381,46.45512 c 9.3969,31.10243 15.35269,47.51393 17.86735,49.89624 0.39705,0.39706 1.85291,1.32351 3.30877,2.24997 3.04407,1.85291 10.32336,7.67634 13.49978,10.58806 3.04407,2.91172 5.29403,7.8087 12.30862,27.26426 1.45586,3.83817 1.19116,6.61754 -0.7941,8.8675 l -1.05881,1.19116 -3.44112,0.92645 c -5.55873,1.45586 -107.60118,35.60236 -178.01179,59.6902 -7.94105,2.77937 -40.10229,13.63213 -65.51364,22.23494 -19.05851,6.48518 -21.44082,6.74988 -32.29359,7.94104 -7.67634,0.39705 -10.45571,-0.39705 -14.16153,-1.0588 -2.11761,-0.52941 -2.11761,-1.19116 -2.11761,-1.32351 0,0 0.2647,-2.51467 0.7941,-5.42638 1.32351,-7.8087 1.45586,-9.26456 5.16168,-34.1465 l 2.91172,-21.44083 0.39705,-2.77937 v -0.2647 c 0.5294,-4.10287 4.76463,-6.35284 14.02918,-9.92631 18.26441,-7.54399 16.1468,-54.39617 19.32322,-80.86632 65.77833,-17.60265 131.42432,-35.20531 197.0703,-52.94031 2.38232,-0.66176 4.36758,-1.19116 4.36758,-1.05881 0.13235,0.13235 2.91172,9.26456 6.35284,20.38202 M 59.425499,190.4778 c -1.058806,1.72056 -1.588209,5.16168 -3.44112,3.04407 -1.455858,-1.98527 -0.132351,-1.98527 1.191157,-2.51467 2.249963,-0.7941 2.382314,-0.7941 2.249963,-0.5294 m -44.072808,42.35225 c 0.2647,0.13235 3.705822,2.64701 7.676345,5.42638 3.970523,2.77936 8.205748,5.82343 9.396905,6.74989 1.191156,0.92645 7.411642,5.42638 13.896831,9.92631 6.352837,4.49992 11.779219,8.47045 11.911569,8.6028 0.264702,0.2647 0.264702,1.45586 0.397053,12.17627 l 0.132351,11.91157 h -0.397053 c -0.529403,0 -0.926454,-0.13235 -1.455858,-0.66176 -0.794105,-0.7941 -3.176419,-2.77936 -12.176272,-9.9263 C 42.219897,275.04994 34.1465,268.56476 26.602506,262.47662 19.058512,256.38848 11.646868,250.4327 10.19101,249.24154 8.735151,248.05039 7.279292,246.85923 7.014591,246.72688 6.220486,246.06512 5.691083,244.47691 5.426382,242.3593 5.16168,239.57994 5.16168,239.71229 6.088135,240.37404 c 6.088136,3.04407 16.9409,14.55859 21.970229,14.16153 1.985262,-0.5294 3.970524,-2.38231 1.58821,-4.49992 l -8.205748,-6.35284 c -4.367576,-3.17642 -8.47045,-5.95578 -12.573324,-8.73515 -1.191157,-0.79411 -1.191157,-0.79411 0.661754,-1.32351 0.794104,-0.2647 1.852911,-0.5294 2.249963,-0.66175 0.926455,-0.79411 2.911717,-0.66176 3.573471,-0.13235 m 501.60945,35.33765 c 1.19115,0.26471 1.0588,3.30877 1.45585,4.63228 0,0 -5.42638,1.58821 -11.91157,3.30877 l -11.91157,3.30877 -5.42638,-2.11761 -5.42638,-2.11762 6.61754,-2.24996 c 9.3969,-3.17642 10.19101,-3.70582 12.70567,-8.0734 0.39706,-0.66175 0.79411,-1.45585 0.92646,-1.5882 m -437.551669,5.95578 c 1.058806,0.7941 2.779366,1.98526 3.838172,2.77937 1.058806,0.7941 3.44112,2.51466 5.426382,3.83817 1.985262,1.45586 4.102874,2.91172 4.632277,3.30877 0.529403,0.39705 1.323508,0.92645 1.588209,1.19116 l 0.529404,0.39705 -2.514665,1.58821 c -5.02933,3.17642 -13.499779,5.95578 -16.146795,5.42638 -0.264702,0 -0.397052,-2.77937 -0.264702,-11.11747 v -9.3969 l 0.397053,0.2647 c 0.397052,0.13235 1.455858,0.92646 2.514665,1.72056 M 472.49227,284.0498 c -0.13235,6.74989 -0.2647,9.6616 -0.5294,29.38187 -0.2647,15.74974 -0.92645,29.24952 -1.45586,29.77892 0,0 -9.52925,2.64702 -20.91142,5.95579 -11.51452,3.17642 -21.17612,5.95578 -21.44083,5.95578 l -0.5294,0.13235 0.13235,-15.08798 c 0.13235,-11.91157 0.66176,-46.05807 0.66176,-46.19042 0,0 43.94045,-15.08799 44.0728,-15.08799 0.13236,0 0.13236,2.11761 0,5.16168 m 11.24982,-1.32351 c 2.91172,1.05881 5.29403,1.98526 5.55873,1.98526 0.2647,0.13235 0.2647,0.5294 0.2647,4.36758 0,3.30877 0,4.23522 -0.2647,4.10287 -0.13235,0 -2.91171,-1.05881 -6.08813,-2.24996 l -5.95579,-2.11762 0.13235,-1.98526 c 0,-1.0588 0.13235,-2.91171 0.13235,-4.23522 v -2.24996 l 0.52941,0.13235 c 0.2647,0.2647 2.77936,1.19115 5.69108,2.24996 m 34.6759,2.64701 -0.13235,4.76463 -10.85276,1.98526 c -5.95579,1.05881 -10.85276,1.98527 -10.98511,1.98527 0,0 0.2647,-7.67635 0.39705,-7.8087 0,0 4.89698,-1.32351 10.85276,-2.91172 5.95579,-1.58821 10.85276,-2.77936 10.85276,-2.77936 0,0 -0.13235,2.11761 -0.13235,4.76462 m -469.580554,4.63228 c 3.838173,3.04407 4.632277,3.57347 6.882241,4.36758 4.367575,1.58821 8.205748,1.72056 12.970376,0.39705 5.558732,-1.58821 15.485041,-5.69108 18.661459,-7.8087 1.058806,-0.66175 1.985262,-1.19115 1.985262,-1.19115 0.132351,0 9.264556,6.48519 20.249676,14.29388 20.77907,14.82329 25.41134,17.99971 26.20545,18.52911 l 0.5294,0.2647 -3.17642,2.11761 c -1.72056,1.19116 -3.17641,2.11762 -3.30877,2.24997 -0.2647,0.2647 -2.91171,19.58791 -2.91171,21.04377 0,1.98526 0.2647,2.51467 2.11761,4.10287 4.89698,4.36758 41.82285,31.49949 46.98453,34.67591 1.5882,0.92645 4.76462,2.91171 7.01459,4.36757 2.24996,1.45586 5.42638,3.44112 7.01459,4.36758 l 2.91171,1.72056 v 0.92645 c 0,0.52941 -0.13235,4.63228 -0.39705,8.99986 -0.13235,4.49992 -0.39705,8.6028 -0.39705,9.1322 0,2.24996 -1.19116,36.13176 -1.32351,40.10229 -0.13235,2.38231 -0.2647,6.08813 -0.2647,8.20574 0,2.11762 -0.13235,3.83818 -0.2647,3.83818 -0.5294,-0.13235 -140.027125,-108.13059 -140.556528,-108.79234 -0.529403,-0.66176 -0.529403,-0.92646 -0.926456,-3.57347 -0.397052,-3.44112 -0.529403,-3.17642 0.529403,-2.51467 3.838173,2.77937 7.941047,5.69109 11.382167,8.20575 0.661754,0.5294 1.588209,1.05881 1.852911,1.19116 2.117612,1.0588 5.294031,-1.98526 3.838173,-3.97053 -6.088136,-5.82343 -12.176272,-9.52925 -18.264408,-13.89683 l -0.794104,-0.5294 -0.264702,-2.38231 c -0.132351,-1.32351 -0.264701,-2.38232 -0.264701,-2.38232 0,-0.13235 5.955785,3.97053 6.220486,4.23523 1.058806,1.0588 3.970523,0.13235 4.499927,-1.32351 0.926455,-2.51467 -0.794105,-4.49993 -6.485189,-7.67635 -0.661753,-0.39705 -1.588209,-0.92645 -2.249963,-1.45585 -0.661754,-0.39706 -1.588209,-1.05881 -2.117612,-1.45586 l -1.058806,-0.79411 -0.264702,-1.85291 c -0.132351,-1.0588 -0.264701,-2.24996 -0.264701,-2.64701 l -0.132351,-0.79411 0.529403,0.2647 c 0.264701,0.13235 0.926455,0.52941 1.455858,0.79411 6.088136,3.97052 12.043921,7.14694 17.867355,10.72041 2.647016,1.72056 5.558733,0.66175 5.558733,-2.11761 0,-1.98526 -0.264702,-2.24997 -12.970376,-9.66161 -4.367576,-2.38231 -8.602801,-5.29403 -12.838026,-7.67634 -0.264701,-0.13235 -0.529403,-0.52941 -0.529403,-0.66176 0,-0.13235 -0.794104,-6.74989 -1.852911,-15.08799 -1.058806,-8.33809 -1.85291,-15.22034 -1.85291,-15.35269 0,-0.13235 0.926455,0.52941 2.249963,1.58821 1.455858,1.19116 4.102874,3.30877 6.220486,4.89698 m 374.155644,11.64687 c 0,7.01459 -0.5294,51.3521 -0.5294,51.48445 -0.13235,0.13235 -20.11732,5.82344 -20.24967,5.82344 -0.13235,0 -0.13235,-37.05822 0,-48.70509 l 0.13235,-7.41164 10.19101,-3.44112 c 5.69109,-1.98526 10.32336,-3.44112 10.32336,-3.57347 0.13235,0 0.13235,2.64701 0.13235,5.82343 m 62.33722,-1.58821 4.36758,1.85291 v 1.19116 c 0,0.66175 -0.13236,6.74989 -0.39706,13.63213 l -0.39705,12.44097 -5.95578,28.19072 c -3.30877,15.48504 -6.08814,28.19071 -6.08814,28.19071 -0.13235,0 -1.32351,0.92646 -2.64702,1.98526 -2.91171,2.11762 -4.89697,2.91172 -5.16168,1.98527 -0.13235,-0.26471 5.95579,-41.6905 6.22049,-42.4846 1.32351,-4.10288 1.85291,-14.82329 2.11761,-37.85233 l 0.13235,-12.44097 1.72056,0.79411 c 0.92646,0.39705 3.70583,1.45585 6.08814,2.51466 m -88.27797,32.82299 v 28.19072 l -4.10287,19.05851 c -2.24997,10.45571 -4.23523,19.19086 -4.23523,19.19086 0,0 -4.49992,-2.64701 -9.79395,-6.22048 l -9.66161,-6.35284 v -36.39646 -36.39647 l 13.76448,-4.76463 c 7.54399,-2.64701 13.76448,-4.76462 13.89683,-4.76462 0.13235,0.2647 0.13235,12.97037 0.13235,28.45541 m -33.35239,20.91143 c 0.13235,17.735 0.2647,32.29359 0.2647,32.42594 -0.2647,0.2647 -46.05807,15.74974 -46.19042,15.61739 0,0 0,-1.05881 0.13235,-2.24997 0.13235,-1.19115 0.13235,-3.70582 0.13235,-5.55873 v -3.44112 c 0,0 -0.39705,-12.57332 -1.05881,-27.79366 -0.66175,-15.22034 -1.0588,-28.32307 -1.0588,-29.11717 v -1.32351 l 23.69079,-8.0734 23.69078,-8.07339 v 2.64701 c 0,1.45586 0.26471,17.2056 0.39706,34.94061 m -214.01121,-25.279 c 4.23523,2.91171 8.20575,5.82343 8.8675,6.35284 2.11762,1.5882 25.67605,18.39675 27.66132,19.72026 5.42638,3.83817 7.54399,4.89698 11.91157,6.22049 6.74988,1.85291 10.72041,2.64701 16.80854,1.85291 6.88224,-0.92646 13.63213,-2.51467 20.24967,-4.23523 l 1.45586,-0.39705 0.92646,1.05881 c 1.45586,1.58821 2.91171,3.57347 2.77936,3.70582 -0.5294,0.5294 -11.38216,3.97052 -25.279,7.94105 -5.42638,1.5882 -6.35283,1.5882 -12.17627,0.2647 -3.17642,-0.79411 -5.95578,-1.32351 -8.47045,-2.91172 l -24.35254,-17.2056 c -13.36743,-9.52926 -26.3378,-18.66146 -28.72012,-20.38202 -6.22048,-4.36758 -6.08813,-4.23523 -6.08813,-4.36758 0,0 1.3235,-0.92645 2.91171,-1.85291 2.91172,-1.85291 2.91172,-1.85291 3.44112,-1.45586 0.13235,0.13236 3.83818,2.77937 8.0734,5.69109 m -3.04407,12.57332 c 6.88224,4.89698 18.13206,12.83803 25.0143,17.73501 6.88224,4.89697 13.76448,9.79395 15.35269,10.85276 3.70582,2.64701 8.47045,5.16168 10.72041,5.55873 0.79411,0.13235 2.77937,0.66176 4.36758,0.92646 2.91172,0.66175 5.95578,1.32351 7.94104,1.0588 1.58821,-0.13235 6.48519,-1.45585 20.11732,-5.55873 6.61754,-1.98526 12.17627,-3.70582 12.17627,-3.70582 0,0 0.13236,3.04407 0.13236,6.74989 l 0.13235,6.61754 -0.66176,0.2647 c -0.39705,0.13235 -1.85291,0.7941 -3.30877,1.45586 -12.17627,5.55873 -16.9409,7.54399 -19.45556,8.0734 -5.29403,1.19115 -6.61754,1.3235 -10.98512,1.19115 -5.16168,-0.13235 -5.55873,-0.13235 -10.72041,-2.51466 l -4.10287,-1.85291 c -31.63184,-20.91143 -41.6905,-29.38188 -55.05793,-39.04348 l -5.82343,-4.23523 0.13235,-1.0588 c 0.13235,-1.32351 0,-1.32351 1.19116,-0.52941 3.30877,2.11762 6.08813,3.57347 8.8675,5.55874 2.51466,1.85291 4.36758,2.11761 5.69108,0.66175 1.98526,-2.24996 -0.13235,-4.23523 -4.89698,-7.54399 -2.91171,-1.85292 -6.08813,-3.83818 -8.99985,-5.55874 -0.5294,-0.2647 -0.92645,-0.5294 -0.92645,-0.66175 0,-1.32351 0.39705,-3.30877 0.5294,-3.30877 0,-0.13235 5.69108,3.97052 12.57332,8.8675 m 164.24732,-5.16168 c 0.39705,7.67635 1.98526,52.80796 1.85291,52.94031 -0.2647,0.2647 -21.57318,5.82344 -21.83788,5.69109 -0.13235,-0.13236 -0.39705,-15.08799 -0.39705,-21.97023 v -5.29403 l -1.72056,-25.5437 21.83788,-7.8087 c 0,0 0.13235,0.92646 0.2647,1.98526 m -26.47016,8.99985 c 0,1.05881 0.2647,6.88224 0.5294,12.70568 l 0.39706,10.72041 -2.51467,12.83803 c -1.58821,7.94104 -3.04407,16.01444 -4.63228,23.95549 -0.13235,0.39705 -0.2647,1.19115 -0.2647,1.58821 -0.13235,1.0588 -0.39705,1.19115 -1.72056,1.58821 -0.66175,0.13235 -2.24996,0.66175 -3.70582,1.0588 -7.94105,2.38232 -36.92587,10.85277 -37.05822,10.85277 0,0 0,-4.23523 0.13235,-9.39691 0.13236,-5.16168 0.26471,-12.17627 0.26471,-15.48504 l 0.13235,-6.22049 5.55873,-2.51466 c 4.89698,-2.24996 5.55873,-2.51467 5.55873,-2.91172 0,-0.2647 0,-3.57347 -0.13235,-7.41164 -0.13235,-3.83817 -0.13235,-8.20575 -0.13235,-9.66161 l 0.13235,-2.64701 -2.64701,-3.44112 c -1.45586,-1.85292 -2.51467,-3.44112 -2.51467,-3.44112 0,0 1.98526,-0.66176 4.36758,-1.32351 9.79395,-2.91172 12.70567,-3.83817 22.89668,-7.41165 5.82344,-1.98526 10.85276,-3.70582 11.11747,-3.83817 0.66175,-0.2647 3.44112,-1.32351 3.57347,-1.32351 0.39705,-0.2647 0.5294,0.66176 0.66175,1.72056 M 467.86,351.01929 c -0.79411,1.72056 -1.19116,2.51466 -1.72056,5.42638 -0.79411,3.44112 -6.61754,17.99971 -7.41165,18.52911 -0.39705,0.2647 -35.47,9.39691 -35.60235,9.26455 -0.13236,-0.13235 4.36757,-22.76433 4.49992,-23.02903 0.13235,-0.2647 40.76404,-11.64687 40.89639,-11.51452 0,-0.13235 -0.2647,0.52941 -0.66175,1.32351 m -48.30804,25.14665 c -1.58821,8.3381 -3.44112,17.60265 -3.97052,20.77907 l -1.05881,5.69108 -0.92645,1.72056 c -2.51467,4.49993 -4.10287,6.08814 -7.544,7.2793 -1.19115,0.39705 -5.16168,1.85291 -8.8675,3.30876 -3.83817,1.45586 -9.92631,3.44113 -14.42623,4.89698 -12.57333,3.97053 -17.86736,6.35284 -23.02904,10.32336 -7.27929,5.55874 -15.22034,7.94105 -29.38187,8.73516 l -1.98526,0.13235 c -15.08799,5.29403 -29.77893,11.91157 -44.99926,16.9409 0,0 0.2647,-1.98527 0.5294,-4.23523 0.2647,-2.38231 0.66175,-4.76463 0.66175,-5.42638 0,-0.66175 0.52941,-4.63228 1.19116,-8.6028 2.38231,-16.80855 3.04407,-21.30848 3.83817,-28.85247 0.39705,-4.36758 0.92646,-7.94105 0.92646,-7.94105 0,0 3.04406,-0.92645 6.61754,-1.85291 3.57347,-0.92645 6.74989,-1.85291 6.88224,-1.85291 0.5294,-0.2647 8.73515,-2.38231 8.8675,-2.38231 0.2647,0.2647 0,3.57347 -0.66176,9.52925 -0.39705,3.70582 -1.0588,10.19101 -1.45585,14.42624 -0.39706,4.23522 -0.92646,8.47045 -1.05881,9.3969 -0.2647,1.98526 -0.13235,2.38232 0.7941,3.30877 l 0.79411,0.79411 1.19116,-0.13235 c 0.7941,-0.13235 2.64701,-0.66176 6.74989,-2.24997 4.23522,-1.58821 13.10272,-4.49992 38.38172,-12.57332 17.99971,-5.82344 33.22005,-10.72041 33.74945,-10.98512 l 0.92645,-0.39705 1.05881,-4.49992 c 0.5294,-2.51467 2.64702,-11.64687 4.49993,-20.24967 1.85291,-8.6028 3.57347,-15.8821 3.57347,-16.01445 0,-0.13235 4.76463,-1.72056 10.58806,-3.57347 l 10.45571,-3.30877 v 1.58821 c 0,1.05881 -0.2647,2.64702 -2.91172,16.27915 m 45.79337,2.64701 c -0.66175,4.76463 -1.19115,8.6028 -1.19115,8.6028 0,0 -0.79411,0.13235 -1.85292,0.13235 -2.91171,0.13235 -6.48518,1.05881 -11.11746,2.64702 -5.95579,2.11761 -30.97008,10.19101 -31.10243,10.05866 -0.13235,-0.13235 1.85291,-10.45571 1.98526,-10.58806 0,0 8.73515,-2.24997 19.32321,-4.89698 12.97038,-3.17642 19.58792,-5.02933 20.24967,-5.29403 1.45586,-0.79411 1.85291,-1.32351 3.44112,-5.55874 0.79411,-2.11761 1.45586,-3.83817 1.58821,-3.83817 0.13235,0 -0.66175,3.97052 -1.32351,8.73515 m -89.86617,18.66146 c 4.36757,2.77937 7.94104,5.29403 8.07339,5.42638 0.13235,0.13235 -8.07339,2.91172 -34.01415,11.38217 -18.79381,6.08814 -34.27885,11.11747 -34.27885,11.11747 0,0 0.2647,-2.91172 0.52941,-6.35284 0.39705,-3.44112 0.7941,-7.41164 0.7941,-8.8675 l 0.2647,-2.64702 7.41165,-2.38231 c 4.10287,-1.32351 15.08798,-5.02933 24.48489,-8.0734 l 17.07325,-5.69108 0.92645,0.5294 c 0.52941,0.13235 4.49993,2.64702 8.73516,5.55873 m -144.3947,-1.72056 v 9.66161 c -0.13235,2.91172 -0.13235,7.54399 -0.13235,10.05866 0,11.51452 -1.19116,20.91142 -4.10288,34.80825 -0.92645,4.23523 -1.72056,7.94105 -1.72056,8.0734 0,0.2647 -0.13235,1.05881 -0.39705,1.72056 -0.13235,0.66175 -0.92645,4.10287 -1.72056,7.54399 -1.98526,8.73516 -1.72056,8.20575 -5.82343,9.66161 -2.24997,0.79411 -6.35284,1.32351 -6.88224,0.79411 0,0 1.0588,-3.44112 2.38231,-7.544 4.89698,-14.95564 5.29403,-16.54385 5.82343,-20.77907 1.98527,-17.99971 1.85292,-38.11702 3.17642,-54.79322 l 3.30877,-1.19116 c 1.85291,-0.66175 3.83818,-1.45586 4.63228,-1.72056 0.66175,-0.2647 1.32351,-0.66175 1.45586,-0.66175 -0.13235,0.13235 -0.13235,1.98526 0,4.36757 m 54.39617,4.23523 c -0.13235,0.92645 -1.45586,10.85276 -3.04407,21.97023 -1.58821,11.11746 -3.30877,23.55843 -3.83817,27.66131 l -1.05881,7.54399 -2.11761,0.52941 c -1.19116,0.2647 -3.30877,0.66175 -4.89698,0.92645 -4.23523,1.05881 -8.8675,1.32351 -11.51452,1.32351 h -4.76463 l -2.11761,-0.66176 c -2.64701,-0.7941 -5.16168,-1.45585 -7.80869,-2.24996 -2.11762,-0.7941 -4.49993,-0.66175 -10.45572,1.05881 -2.38231,0.66175 -4.36757,1.19115 -4.36757,1.19115 0,0 0.13235,-1.19115 0.5294,-2.64701 l 0.52941,-2.51467 14.29388,-4.10287 c 7.8087,-2.24996 18.13206,-5.16168 23.02903,-6.61754 l 8.73516,-2.51466 4.23522,-23.42609 c 2.38231,-12.97038 4.23523,-23.55844 4.36758,-23.55844 0.39705,-0.5294 0.5294,4.63228 0.2647,6.08814 m -84.57215,-3.70582 2.11761,0.66175 h 3.97053 c 3.83817,0 8.20575,-0.2647 8.8675,-0.5294 0.2647,-0.13235 0.2647,0 0.2647,3.17641 -0.39705,8.99986 -1.32351,30.57303 -1.58821,33.0877 -0.13235,1.58821 -0.39705,5.82343 -0.66175,9.52925 -0.13235,3.57348 -0.39705,7.8087 -0.52941,9.39691 l -0.13235,2.91172 -1.58821,4.23522 c -0.92645,2.38232 -2.64701,7.14694 -3.97052,10.72041 l -2.38231,6.48519 -0.92646,-0.5294 c -1.0588,-0.5294 -9.1322,-6.74989 -9.1322,-7.01459 0,-0.13235 0.13235,-2.11761 0.13235,-4.36758 0,-2.38231 0.39705,-11.11746 0.7941,-19.58791 0.39706,-8.47045 0.79411,-17.4703 0.92646,-19.98497 0.13235,-2.51466 0.2647,-5.42638 0.2647,-6.22049 l 0.13235,-1.58821 1.05881,0.13236 c 0.5294,0.13235 1.58821,0.2647 2.11761,0.5294 1.32351,0.5294 6.35284,0.7941 8.0734,0.39705 2.77936,-0.66175 3.57347,-3.70582 1.58821,-5.42638 -0.79411,-0.66175 -0.39706,-0.66175 -4.10288,-0.66175 -2.51466,0 -3.04407,-0.13236 -4.36757,-0.52941 -1.58821,-0.5294 -2.77937,-0.7941 -3.57347,-0.92645 -0.52941,-0.13235 -0.52941,-0.13235 -0.39706,-3.04407 l 0.13235,-1.72056 0.66176,0.13235 c 0.39705,0.13235 0.92645,0.2647 1.0588,0.39705 1.72056,0.92646 7.544,1.72056 9.13221,1.19116 2.11761,-0.66175 2.77936,-3.44112 1.19115,-5.02933 -0.7941,-0.79411 -1.0588,-0.92646 -3.97052,-1.05881 -2.11761,-0.13235 -3.97052,-0.39705 -5.29403,-0.66175 -1.32351,-0.2647 -1.45586,-0.13235 -2.51466,-1.19116 -0.52941,-0.66175 0.2647,-3.44112 0.2647,-3.44112 0.39705,-0.13235 1.32351,0.2647 2.38231,0.52941 m 75.837,17.9997 c 0,0.2647 -0.92646,5.42638 -1.98527,11.51452 -1.3235,7.94105 -1.98526,10.98511 -2.11761,11.11746 -0.13235,0.13235 -5.69108,1.58821 -12.30862,3.44112 -6.61754,1.85291 -15.61739,4.36758 -19.98497,5.69109 -4.36757,1.32351 -8.07339,2.24996 -8.07339,2.24996 0,0 0.13235,-1.05881 0.5294,-2.38231 0.2647,-1.32351 0.66175,-3.70583 0.92645,-5.42639 0.39706,-3.17641 1.32351,-11.51451 1.58821,-13.89683 l 0.13235,-1.3235 0.92646,-0.26471 c 0.5294,-0.13235 9.52926,-2.64701 20.11732,-5.55873 10.58806,-2.91172 19.45556,-5.42638 19.72026,-5.42638 0.52941,-0.2647 0.66176,-0.13235 0.52941,0.2647"
   style="stroke-width:1.32351" />

</svg>
